<mxfile host="app.diagrams.net" modified="2023-09-30T08:50:30.666Z" agent="Mozilla/5.0 (Macintosh; Intel Mac OS X 10_15_7) AppleWebKit/537.36 (KHTML, like Gecko) Chrome/117.0.0.0 Safari/537.36" etag="WPpRVpamNZqs5JzJXXBB" version="21.7.5" type="github">
  <diagram name="第 1 页" id="Q537rxLhMUSTkM9syUY6">
    <mxGraphModel dx="1252" dy="829" grid="1" gridSize="10" guides="1" tooltips="1" connect="1" arrows="1" fold="1" page="1" pageScale="1" pageWidth="827" pageHeight="1169" math="0" shadow="0">
      <root>
        <mxCell id="0" />
        <mxCell id="1" parent="0" />
        <mxCell id="EyyMEvXK14m39EPX4xlp-18" value="区块头（Head）" style="swimlane;fontStyle=0;childLayout=stackLayout;horizontal=1;startSize=30;horizontalStack=0;resizeParent=1;resizeParentMax=0;resizeLast=0;collapsible=1;marginBottom=0;whiteSpace=wrap;html=1;" vertex="1" parent="1">
          <mxGeometry x="660" y="240" width="140" height="130" as="geometry" />
        </mxCell>
        <mxCell id="EyyMEvXK14m39EPX4xlp-19" value="区块体（Body）" style="text;strokeColor=none;fillColor=none;align=left;verticalAlign=middle;spacingLeft=4;spacingRight=4;overflow=hidden;points=[[0,0.5],[1,0.5]];portConstraint=eastwest;rotatable=0;whiteSpace=wrap;html=1;" vertex="1" parent="EyyMEvXK14m39EPX4xlp-18">
          <mxGeometry y="30" width="140" height="100" as="geometry" />
        </mxCell>
        <mxCell id="EyyMEvXK14m39EPX4xlp-23" style="edgeStyle=orthogonalEdgeStyle;rounded=0;orthogonalLoop=1;jettySize=auto;html=1;entryX=1;entryY=0.5;entryDx=0;entryDy=0;exitX=0.5;exitY=0;exitDx=0;exitDy=0;" edge="1" parent="1" source="EyyMEvXK14m39EPX4xlp-21" target="EyyMEvXK14m39EPX4xlp-19">
          <mxGeometry relative="1" as="geometry" />
        </mxCell>
        <mxCell id="EyyMEvXK14m39EPX4xlp-21" value="区块头（Head）" style="swimlane;fontStyle=0;childLayout=stackLayout;horizontal=1;startSize=30;horizontalStack=0;resizeParent=1;resizeParentMax=0;resizeLast=0;collapsible=1;marginBottom=0;whiteSpace=wrap;html=1;" vertex="1" parent="1">
          <mxGeometry x="910" y="240" width="140" height="130" as="geometry" />
        </mxCell>
        <mxCell id="EyyMEvXK14m39EPX4xlp-22" value="区块体（Body）" style="text;strokeColor=none;fillColor=none;align=left;verticalAlign=middle;spacingLeft=4;spacingRight=4;overflow=hidden;points=[[0,0.5],[1,0.5]];portConstraint=eastwest;rotatable=0;whiteSpace=wrap;html=1;" vertex="1" parent="EyyMEvXK14m39EPX4xlp-21">
          <mxGeometry y="30" width="140" height="100" as="geometry" />
        </mxCell>
        <mxCell id="EyyMEvXK14m39EPX4xlp-24" style="edgeStyle=orthogonalEdgeStyle;rounded=0;orthogonalLoop=1;jettySize=auto;html=1;entryX=1;entryY=0.5;entryDx=0;entryDy=0;exitX=0.5;exitY=0;exitDx=0;exitDy=0;" edge="1" parent="1" source="EyyMEvXK14m39EPX4xlp-25">
          <mxGeometry relative="1" as="geometry">
            <mxPoint x="1050" y="320" as="targetPoint" />
          </mxGeometry>
        </mxCell>
        <mxCell id="EyyMEvXK14m39EPX4xlp-25" value="区块头（Head）" style="swimlane;fontStyle=0;childLayout=stackLayout;horizontal=1;startSize=30;horizontalStack=0;resizeParent=1;resizeParentMax=0;resizeLast=0;collapsible=1;marginBottom=0;whiteSpace=wrap;html=1;" vertex="1" parent="1">
          <mxGeometry x="1160" y="240" width="140" height="130" as="geometry" />
        </mxCell>
        <mxCell id="EyyMEvXK14m39EPX4xlp-26" value="区块体（Body）" style="text;strokeColor=none;fillColor=none;align=left;verticalAlign=middle;spacingLeft=4;spacingRight=4;overflow=hidden;points=[[0,0.5],[1,0.5]];portConstraint=eastwest;rotatable=0;whiteSpace=wrap;html=1;" vertex="1" parent="EyyMEvXK14m39EPX4xlp-25">
          <mxGeometry y="30" width="140" height="100" as="geometry" />
        </mxCell>
        <mxCell id="EyyMEvXK14m39EPX4xlp-27" style="edgeStyle=orthogonalEdgeStyle;rounded=0;orthogonalLoop=1;jettySize=auto;html=1;entryX=1;entryY=0.5;entryDx=0;entryDy=0;exitX=0.5;exitY=0;exitDx=0;exitDy=0;" edge="1" parent="1" source="EyyMEvXK14m39EPX4xlp-28">
          <mxGeometry relative="1" as="geometry">
            <mxPoint x="1300" y="320" as="targetPoint" />
          </mxGeometry>
        </mxCell>
        <mxCell id="EyyMEvXK14m39EPX4xlp-28" value="区块头（Head）" style="swimlane;fontStyle=0;childLayout=stackLayout;horizontal=1;startSize=30;horizontalStack=0;resizeParent=1;resizeParentMax=0;resizeLast=0;collapsible=1;marginBottom=0;whiteSpace=wrap;html=1;" vertex="1" parent="1">
          <mxGeometry x="1410" y="240" width="140" height="130" as="geometry" />
        </mxCell>
        <mxCell id="EyyMEvXK14m39EPX4xlp-29" value="区块体（Body）" style="text;strokeColor=none;fillColor=none;align=left;verticalAlign=middle;spacingLeft=4;spacingRight=4;overflow=hidden;points=[[0,0.5],[1,0.5]];portConstraint=eastwest;rotatable=0;whiteSpace=wrap;html=1;" vertex="1" parent="EyyMEvXK14m39EPX4xlp-28">
          <mxGeometry y="30" width="140" height="100" as="geometry" />
        </mxCell>
        <mxCell id="EyyMEvXK14m39EPX4xlp-30" style="edgeStyle=orthogonalEdgeStyle;rounded=0;orthogonalLoop=1;jettySize=auto;html=1;entryX=1;entryY=0.5;entryDx=0;entryDy=0;exitX=0.5;exitY=0;exitDx=0;exitDy=0;" edge="1" parent="1" source="EyyMEvXK14m39EPX4xlp-31">
          <mxGeometry relative="1" as="geometry">
            <mxPoint x="1550" y="309.94" as="targetPoint" />
          </mxGeometry>
        </mxCell>
        <mxCell id="EyyMEvXK14m39EPX4xlp-31" value="区块头（Head）" style="swimlane;fontStyle=0;childLayout=stackLayout;horizontal=1;startSize=30;horizontalStack=0;resizeParent=1;resizeParentMax=0;resizeLast=0;collapsible=1;marginBottom=0;whiteSpace=wrap;html=1;" vertex="1" parent="1">
          <mxGeometry x="1660" y="229.94" width="140" height="130" as="geometry" />
        </mxCell>
        <mxCell id="EyyMEvXK14m39EPX4xlp-32" value="区块体（Body）" style="text;strokeColor=none;fillColor=none;align=left;verticalAlign=middle;spacingLeft=4;spacingRight=4;overflow=hidden;points=[[0,0.5],[1,0.5]];portConstraint=eastwest;rotatable=0;whiteSpace=wrap;html=1;" vertex="1" parent="EyyMEvXK14m39EPX4xlp-31">
          <mxGeometry y="30" width="140" height="100" as="geometry" />
        </mxCell>
      </root>
    </mxGraphModel>
  </diagram>
</mxfile>
